<svg width="21" height="20" viewBox="0 0 21 20" fill="none" xmlns="http://www.w3.org/2000/svg">
<path d="M19.6483 9.50001C19.6518 10.8199 19.3411 12.1219 18.7416 13.3C18.0308 14.7118 16.9381 15.8992 15.5858 16.7293C14.2335 17.5594 12.6751 17.9994 11.0852 18C9.75551 18.0034 8.44383 17.6951 7.25697 17.1L1.51465 19L3.42875 13.3C2.82927 12.1219 2.51861 10.8199 2.52207 9.50001C2.52269 7.92177 2.96596 6.37487 3.80223 5.03257C4.6385 3.69027 5.83474 2.60559 7.25697 1.90003C8.44383 1.30496 9.75551 0.996587 11.0852 1.00003H11.5889C13.6887 1.11502 15.672 1.99479 17.1591 3.47088C18.6461 4.94698 19.5324 6.91567 19.6483 9.00002V9.50001Z" stroke="white" stroke-width="2" stroke-linecap="round" stroke-linejoin="round"/>
</svg>
